<?xml version="1.0" standalone="no"?>
<!DOCTYPE svg PUBLIC "-//W3C//DTD SVG 20010904//EN"
 "http://www.w3.org/TR/2001/REC-SVG-20010904/DTD/svg10.dtd">
<svg version="1.0" xmlns="http://www.w3.org/2000/svg"
 width="1024.000000pt" height="1024.000000pt" viewBox="0 0 1024.000000 1024.000000"
 preserveAspectRatio="xMidYMid meet">
<metadata>
Created by potrace 1.14, written by Peter Selinger 2001-2017
</metadata>
<g transform="translate(0.000000,1024.000000) scale(0.100000,-0.100000)"
fill="#000000" stroke="none">
<path d="M5085 5120 l0 -4550 23 0 c36 0 78 29 100 69 20 35 21 54 21 331 0
162 1 320 1 351 l0 57 333 -333 c357 -357 356 -357 440 -341 43 8 95 59 103
100 7 41 0 92 -18 114 -7 9 -203 208 -436 440 l-423 424 0 342 c0 187 0 354 1
371 0 27 24 5 274 -244 150 -151 284 -280 297 -287 56 -31 148 -4 181 52 23
40 28 94 11 129 -8 17 -183 199 -389 405 l-374 375 0 250 c-1 138 -1 305 -1
372 l1 123 599 -600 c385 -385 610 -604 632 -612 44 -18 93 -9 154 28 87 53
107 105 79 206 -8 29 -17 62 -19 73 -3 11 -18 68 -34 126 -17 58 -32 118 -35
133 -3 15 -12 49 -19 74 -8 26 -34 119 -57 207 -23 88 -50 189 -60 225 -19 68
-29 112 -29 120 0 3 -5 19 -11 35 -7 17 -14 38 -16 47 -2 10 -6 26 -8 35 -2
10 -14 54 -26 98 -29 106 -56 209 -79 299 -10 41 -22 79 -25 85 -10 16 11 22
24 6 7 -8 16 -15 20 -15 4 0 126 -69 271 -153 145 -84 276 -159 292 -166 21
-12 31 -29 48 -84 11 -39 22 -77 24 -86 7 -35 44 -172 49 -180 3 -4 7 -21 10
-37 17 -92 178 -663 194 -684 45 -61 130 -74 196 -29 54 37 70 96 46 179 -6
25 -14 52 -16 60 -2 8 -13 49 -24 90 -11 41 -22 82 -24 90 -16 62 -82 310
-101 373 -12 42 -19 77 -14 77 6 0 627 -355 636 -364 1 -1 4 -13 7 -26 3 -14
14 -56 25 -95 10 -38 33 -124 51 -190 17 -66 33 -122 35 -126 2 -3 7 -19 10
-35 5 -27 20 -86 60 -229 16 -59 21 -78 29 -114 2 -10 13 -49 24 -87 11 -38
30 -107 42 -154 32 -122 48 -151 99 -177 95 -48 203 17 203 122 0 25 -158 630
-218 838 -10 31 -15 59 -13 62 3 2 72 -34 154 -82 489 -281 457 -264 502 -259
51 6 86 28 113 71 26 42 25 90 -3 139 -21 37 -59 63 -257 174 -25 14 -113 65
-197 113 -84 49 -158 89 -165 89 -37 0 98 48 182 65 12 2 87 23 145 39 6 1 30
8 55 15 25 7 52 14 60 16 8 2 51 13 96 24 45 12 91 23 103 26 11 2 26 7 31 10
5 3 18 8 28 10 9 1 37 9 62 16 52 15 45 13 90 22 73 15 127 97 111 169 -12 50
-32 77 -76 98 -53 26 -48 26 -365 -60 -63 -17 -176 -47 -250 -66 -74 -19 -146
-38 -160 -43 -14 -5 -72 -21 -130 -36 -58 -15 -136 -36 -175 -47 -38 -11 -79
-22 -92 -24 -12 -2 -33 -8 -47 -13 -20 -8 -43 2 -152 66 -71 41 -146 85 -168
96 -78 44 -95 53 -219 126 -70 41 -126 75 -125 77 2 1 39 12 83 23 44 12 87
24 95 26 8 2 76 20 150 40 327 87 396 106 420 116 93 39 102 188 15 245 -46
30 -92 28 -247 -15 -81 -23 -216 -59 -300 -82 -144 -38 -325 -86 -358 -95 -8
-2 -60 -16 -115 -30 l-100 -27 -188 109 c-103 60 -202 117 -220 128 -18 10
-45 26 -62 35 -87 48 -165 96 -165 101 0 3 8 6 18 7 9 1 145 36 302 78 157 43
341 92 410 110 69 19 161 43 205 55 44 12 87 23 95 25 8 2 74 20 145 40 119
32 245 64 270 69 6 1 15 4 20 7 6 4 42 14 81 23 136 33 173 79 164 202 -8 114
-31 135 -191 177 -52 14 -274 73 -494 132 -220 59 -404 108 -410 110 -5 1 -17
4 -25 7 -14 5 -344 94 -380 102 -8 2 -42 12 -75 21 -33 9 -71 19 -85 22 -65
13 -59 19 105 107 39 21 77 45 86 52 8 8 18 14 21 14 3 0 88 48 189 106 l184
106 105 -27 c58 -15 112 -29 120 -31 8 -2 98 -26 200 -54 102 -27 194 -52 205
-55 11 -2 36 -9 55 -14 251 -69 348 -92 377 -88 67 9 115 61 119 129 4 96 -38
133 -196 173 -67 16 -554 148 -589 158 l-44 14 178 101 c97 56 181 102 185
102 5 0 10 4 12 8 2 4 53 36 115 71 61 35 119 69 129 75 14 11 32 9 103 -10
47 -12 122 -32 166 -44 154 -41 681 -182 750 -201 142 -39 146 -40 180 -44 78
-7 150 61 149 141 -2 51 -33 106 -70 123 -23 10 -140 46 -184 56 -14 3 -206
54 -515 137 -60 16 -129 34 -152 40 -24 5 -43 13 -43 18 0 4 15 15 33 25 17 9
41 22 52 28 11 7 130 75 264 152 276 159 292 173 286 258 -8 120 -116 168
-230 103 -249 -142 -521 -300 -533 -309 -7 -5 -15 -7 -18 -4 -3 3 15 82 41
177 26 94 48 179 50 189 2 10 12 49 23 87 37 127 85 308 102 381 14 60 15 77
4 108 -31 91 -117 125 -203 81 -51 -27 -54 -35 -142 -361 -28 -104 -52 -197
-54 -205 -1 -8 -9 -35 -16 -60 -7 -25 -13 -49 -15 -55 -1 -5 -15 -59 -32 -120
-16 -60 -48 -182 -71 -271 l-43 -160 -85 -50 c-96 -55 -103 -59 -333 -191 -91
-53 -180 -104 -198 -115 l-32 -20 9 25 c5 13 12 37 15 53 3 16 15 63 26 104
38 135 58 207 128 475 32 124 30 160 -15 207 -85 90 -221 41 -248 -88 -3 -16
-7 -33 -9 -39 -1 -5 -10 -35 -19 -65 -8 -30 -43 -161 -78 -290 -34 -129 -77
-291 -96 -360 -19 -69 -36 -134 -38 -144 -16 -71 -24 -80 -122 -136 -163 -93
-185 -106 -276 -159 -49 -28 -91 -51 -95 -51 -3 0 -13 -6 -21 -13 -9 -8 -46
-30 -83 -51 l-67 -36 19 67 c10 38 33 122 50 188 18 66 45 167 61 225 16 58
32 116 35 130 3 14 14 56 25 95 11 38 22 79 24 90 3 11 32 121 65 245 34 124
74 275 90 335 16 61 39 146 50 189 33 123 16 168 -84 225 -67 39 -128 42 -172
9 -17 -13 -292 -285 -613 -605 -320 -321 -585 -583 -589 -583 -4 0 -6 165 -5
367 l3 368 379 380 c392 393 404 408 394 474 -14 91 -125 150 -202 107 -14 -8
-148 -137 -298 -287 l-273 -273 0 55 c-1 67 -1 588 0 646 0 42 2 43 423 465
232 233 430 435 440 450 18 30 22 83 8 120 -14 37 -60 77 -97 84 -84 16 -83
17 -441 -340 l-333 -333 0 81 c-1 44 -1 202 -1 351 0 252 -1 272 -21 306 -22
40 -64 69 -100 69 l-23 0 0 -4550z m1210 2035 c-13 -50 -25 -90 -25 -90 -1 0
-3 -7 -5 -15 -1 -8 -19 -76 -39 -150 -20 -74 -61 -227 -91 -340 -30 -113 -89
-331 -130 -485 -41 -153 -75 -285 -75 -291 0 -11 -183 -124 -201 -124 -5 0 -9
-4 -9 -10 0 -5 -4 -10 -9 -10 -5 0 -110 -58 -232 -129 -123 -71 -230 -131
-237 -133 -10 -2 -13 74 -13 391 l0 393 23 26 c55 60 1061 1062 1064 1060 1
-2 -8 -44 -21 -93z m91 -1721 c175 -47 351 -94 389 -104 39 -10 115 -31 170
-45 55 -15 150 -40 210 -57 61 -16 117 -31 125 -33 8 -2 60 -16 115 -31 55
-15 114 -30 130 -34 39 -9 49 -6 -205 -74 -30 -8 -140 -38 -245 -66 -218 -59
-201 -55 -240 -65 -16 -4 -70 -18 -120 -32 -49 -14 -98 -27 -107 -29 -39 -9
-58 -14 -183 -48 -71 -20 -141 -39 -155 -42 -14 -3 -29 -6 -35 -8 -5 -1 -35
-10 -65 -18 -108 -31 -95 -34 -256 58 -82 48 -165 95 -184 106 -19 11 -88 51
-152 89 -64 38 -121 69 -127 69 -6 0 -11 4 -11 8 0 4 -13 13 -30 19 -16 6 -30
15 -30 20 0 5 82 56 181 113 100 58 200 116 223 129 22 13 59 34 81 47 22 12
76 43 120 68 44 25 80 46 81 46 1 0 145 -39 320 -86z m-1130 -573 c8 -8 448
-265 574 -335 31 -17 63 -36 73 -42 17 -10 30 -49 98 -304 11 -41 47 -176 81
-300 33 -124 61 -232 63 -240 10 -41 153 -570 166 -614 5 -16 7 -31 5 -33 -2
-2 -247 240 -545 538 -516 515 -541 542 -541 577 -1 45 -1 554 0 675 0 83 5
98 26 78z"/>
<path d="M1267 9513 c-2 -10 -30 -104 -60 -209 -31 -106 -59 -202 -61 -215 -3
-13 -12 -51 -20 -84 -25 -107 -67 -289 -72 -315 -7 -40 -14 -73 -19 -100 -3
-14 -21 -115 -40 -225 -32 -181 -42 -249 -50 -325 -1 -14 -5 -43 -9 -66 -4
-22 -9 -62 -11 -90 -2 -27 -5 -49 -5 -49 -1 0 -3 -13 -4 -30 -2 -16 -6 -64
-10 -105 -28 -280 -39 -510 -40 -815 0 -201 9 -512 19 -610 2 -22 6 -71 10
-110 13 -149 19 -203 45 -385 16 -113 20 -134 24 -156 2 -12 7 -38 10 -58 5
-28 42 -214 61 -306 31 -146 111 -430 172 -610 33 -99 102 -284 126 -340 6
-14 11 -27 12 -30 0 -3 11 -27 23 -54 12 -27 22 -50 22 -52 0 -13 144 -309
223 -459 85 -161 233 -412 267 -452 5 -7 10 -15 10 -18 0 -11 258 -385 306
-444 7 -9 42 -54 79 -101 112 -145 314 -386 404 -484 241 -260 471 -489 660
-656 41 -36 86 -76 101 -90 281 -256 859 -686 1069 -794 106 -55 261 -116 261
-102 0 6 0 1067 0 2358 0 2259 -1 2349 -19 2380 -84 151 -498 757 -551 808 -3
3 -31 39 -62 80 -32 42 -65 84 -75 95 -10 11 -36 43 -58 70 -34 43 -260 309
-290 341 -5 6 -46 51 -90 99 -44 49 -114 124 -155 168 -41 44 -92 98 -113 121
-111 118 -517 533 -834 852 -412 415 -516 525 -609 643 -10 13 -33 40 -50 60
-58 67 -231 305 -316 436 -100 153 -162 257 -244 413 -20 36 -29 40 -37 15z
m516 -2294 c36 -68 100 -194 144 -279 155 -299 302 -586 355 -690 29 -58 55
-107 58 -110 3 -3 22 -40 44 -83 21 -44 44 -76 50 -73 6 2 56 23 111 46 55 23
114 47 130 55 105 47 195 80 180 67 -69 -59 -242 -181 -337 -236 -49 -27 -55
-35 -39 -51 5 -6 59 -109 121 -230 62 -121 141 -274 175 -340 34 -66 109 -210
165 -320 56 -110 131 -254 165 -320 34 -66 111 -214 170 -330 59 -115 111
-214 115 -218 6 -7 187 64 261 103 30 16 89 39 89 35 0 -6 -143 -119 -215
-170 -38 -26 -74 -52 -79 -56 -9 -8 17 -61 169 -354 107 -206 219 -424 335
-650 56 -110 135 -263 175 -340 40 -77 112 -216 160 -310 l87 -170 -59 61
c-224 233 -506 570 -734 875 -68 92 -130 175 -137 185 -7 11 -43 62 -79 114
-37 52 -109 160 -161 240 -51 80 -97 149 -102 153 -4 5 -23 2 -41 -6 -118 -50
-320 -114 -414 -131 -11 -2 -31 -6 -45 -10 -33 -8 -70 -14 -160 -27 -41 -6
-79 -13 -85 -16 -7 -4 -7 -2 0 5 6 6 69 36 140 67 143 62 159 70 258 114 38
17 70 31 72 31 3 0 28 11 57 24 29 13 75 33 101 45 l49 21 -20 32 c-140 230
-297 516 -418 763 -94 189 -117 238 -209 450 -31 72 -63 144 -70 160 -7 17
-34 84 -59 150 -26 66 -51 129 -56 140 -5 11 -14 39 -21 63 -13 46 -22 49 -73
28 -28 -12 -115 -37 -256 -76 -45 -12 -190 -38 -255 -46 -27 -3 -60 -7 -73 -9
-12 -2 -20 0 -17 6 4 5 12 9 19 9 7 0 26 6 42 14 16 8 146 62 289 121 143 59
261 108 262 109 1 1 -27 87 -62 191 -52 156 -123 387 -140 455 -2 8 -18 65
-35 125 -16 61 -32 119 -34 130 -2 11 -7 27 -10 35 -3 8 -8 26 -10 40 -3 14
-17 75 -31 135 -14 61 -37 164 -51 230 -13 66 -27 129 -30 140 -12 38 6 8 69
-116z"/>
</g>
</svg>
